solid warehouse_20x16_walls
  facet normal 0 0 0
    outer loop
      vertex -10.000000 7.900000 0.000000
      vertex 10.000000 8.000000 0.000000
      vertex 10.000000 7.900000 0.000000
    endloop
  endfacet
  facet normal 0 0 0
    outer loop
      vertex -10.000000 7.900000 0.000000
      vertex -10.000000 8.000000 0.000000
      vertex 10.000000 8.000000 0.000000
    endloop
  endfacet
  facet normal 0 0 0
    outer loop
      vertex -10.000000 7.900000 5.000000
      vertex 10.000000 7.900000 5.000000
      vertex 10.000000 8.000000 5.000000
    endloop
  endfacet
  facet normal 0 0 0
    outer loop
      vertex -10.000000 7.900000 5.000000
      vertex 10.000000 8.000000 5.000000
      vertex -10.000000 8.000000 5.000000
    endloop
  endfacet
  facet normal 0 0 0
    outer loop
      vertex -10.000000 7.900000 0.000000
      vertex 10.000000 7.900000 0.000000
      vertex 10.000000 7.900000 5.000000
    endloop
  endfacet
  facet normal 0 0 0
    outer loop
      vertex -10.000000 7.900000 0.000000
      vertex 10.000000 7.900000 5.000000
      vertex -10.000000 7.900000 5.000000
    endloop
  endfacet
  facet normal 0 0 0
    outer loop
      vertex 10.000000 7.900000 0.000000
      vertex 10.000000 8.000000 0.000000
      vertex 10.000000 8.000000 5.000000
    endloop
  endfacet
  facet normal 0 0 0
    outer loop
      vertex 10.000000 7.900000 0.000000
      vertex 10.000000 8.000000 5.000000
      vertex 10.000000 7.900000 5.000000
    endloop
  endfacet
  facet normal 0 0 0
    outer loop
      vertex 10.000000 8.000000 0.000000
      vertex -10.000000 8.000000 0.000000
      vertex -10.000000 8.000000 5.000000
    endloop
  endfacet
  facet normal 0 0 0
    outer loop
      vertex 10.000000 8.000000 0.000000
      vertex -10.000000 8.000000 5.000000
      vertex 10.000000 8.000000 5.000000
    endloop
  endfacet
  facet normal 0 0 0
    outer loop
      vertex -10.000000 8.000000 0.000000
      vertex -10.000000 7.900000 0.000000
      vertex -10.000000 7.900000 5.000000
    endloop
  endfacet
  facet normal 0 0 0
    outer loop
      vertex -10.000000 8.000000 0.000000
      vertex -10.000000 7.900000 5.000000
      vertex -10.000000 8.000000 5.000000
    endloop
  endfacet
  facet normal 0 0 0
    outer loop
      vertex -10.000000 -8.000000 0.000000
      vertex 10.000000 -7.900000 0.000000
      vertex 10.000000 -8.000000 0.000000
    endloop
  endfacet
  facet normal 0 0 0
    outer loop
      vertex -10.000000 -8.000000 0.000000
      vertex -10.000000 -7.900000 0.000000
      vertex 10.000000 -7.900000 0.000000
    endloop
  endfacet
  facet normal 0 0 0
    outer loop
      vertex -10.000000 -8.000000 5.000000
      vertex 10.000000 -8.000000 5.000000
      vertex 10.000000 -7.900000 5.000000
    endloop
  endfacet
  facet normal 0 0 0
    outer loop
      vertex -10.000000 -8.000000 5.000000
      vertex 10.000000 -7.900000 5.000000
      vertex -10.000000 -7.900000 5.000000
    endloop
  endfacet
  facet normal 0 0 0
    outer loop
      vertex -10.000000 -8.000000 0.000000
      vertex 10.000000 -8.000000 0.000000
      vertex 10.000000 -8.000000 5.000000
    endloop
  endfacet
  facet normal 0 0 0
    outer loop
      vertex -10.000000 -8.000000 0.000000
      vertex 10.000000 -8.000000 5.000000
      vertex -10.000000 -8.000000 5.000000
    endloop
  endfacet
  facet normal 0 0 0
    outer loop
      vertex 10.000000 -8.000000 0.000000
      vertex 10.000000 -7.900000 0.000000
      vertex 10.000000 -7.900000 5.000000
    endloop
  endfacet
  facet normal 0 0 0
    outer loop
      vertex 10.000000 -8.000000 0.000000
      vertex 10.000000 -7.900000 5.000000
      vertex 10.000000 -8.000000 5.000000
    endloop
  endfacet
  facet normal 0 0 0
    outer loop
      vertex 10.000000 -7.900000 0.000000
      vertex -10.000000 -7.900000 0.000000
      vertex -10.000000 -7.900000 5.000000
    endloop
  endfacet
  facet normal 0 0 0
    outer loop
      vertex 10.000000 -7.900000 0.000000
      vertex -10.000000 -7.900000 5.000000
      vertex 10.000000 -7.900000 5.000000
    endloop
  endfacet
  facet normal 0 0 0
    outer loop
      vertex -10.000000 -7.900000 0.000000
      vertex -10.000000 -8.000000 0.000000
      vertex -10.000000 -8.000000 5.000000
    endloop
  endfacet
  facet normal 0 0 0
    outer loop
      vertex -10.000000 -7.900000 0.000000
      vertex -10.000000 -8.000000 5.000000
      vertex -10.000000 -7.900000 5.000000
    endloop
  endfacet
  facet normal 0 0 0
    outer loop
      vertex 9.900000 -8.000000 0.000000
      vertex 10.000000 8.000000 0.000000
      vertex 10.000000 -8.000000 0.000000
    endloop
  endfacet
  facet normal 0 0 0
    outer loop
      vertex 9.900000 -8.000000 0.000000
      vertex 9.900000 8.000000 0.000000
      vertex 10.000000 8.000000 0.000000
    endloop
  endfacet
  facet normal 0 0 0
    outer loop
      vertex 9.900000 -8.000000 5.000000
      vertex 10.000000 -8.000000 5.000000
      vertex 10.000000 8.000000 5.000000
    endloop
  endfacet
  facet normal 0 0 0
    outer loop
      vertex 9.900000 -8.000000 5.000000
      vertex 10.000000 8.000000 5.000000
      vertex 9.900000 8.000000 5.000000
    endloop
  endfacet
  facet normal 0 0 0
    outer loop
      vertex 9.900000 -8.000000 0.000000
      vertex 10.000000 -8.000000 0.000000
      vertex 10.000000 -8.000000 5.000000
    endloop
  endfacet
  facet normal 0 0 0
    outer loop
      vertex 9.900000 -8.000000 0.000000
      vertex 10.000000 -8.000000 5.000000
      vertex 9.900000 -8.000000 5.000000
    endloop
  endfacet
  facet normal 0 0 0
    outer loop
      vertex 10.000000 -8.000000 0.000000
      vertex 10.000000 8.000000 0.000000
      vertex 10.000000 8.000000 5.000000
    endloop
  endfacet
  facet normal 0 0 0
    outer loop
      vertex 10.000000 -8.000000 0.000000
      vertex 10.000000 8.000000 5.000000
      vertex 10.000000 -8.000000 5.000000
    endloop
  endfacet
  facet normal 0 0 0
    outer loop
      vertex 10.000000 8.000000 0.000000
      vertex 9.900000 8.000000 0.000000
      vertex 9.900000 8.000000 5.000000
    endloop
  endfacet
  facet normal 0 0 0
    outer loop
      vertex 10.000000 8.000000 0.000000
      vertex 9.900000 8.000000 5.000000
      vertex 10.000000 8.000000 5.000000
    endloop
  endfacet
  facet normal 0 0 0
    outer loop
      vertex 9.900000 8.000000 0.000000
      vertex 9.900000 -8.000000 0.000000
      vertex 9.900000 -8.000000 5.000000
    endloop
  endfacet
  facet normal 0 0 0
    outer loop
      vertex 9.900000 8.000000 0.000000
      vertex 9.900000 -8.000000 5.000000
      vertex 9.900000 8.000000 5.000000
    endloop
  endfacet
  facet normal 0 0 0
    outer loop
      vertex -10.000000 -8.000000 0.000000
      vertex -9.900000 8.000000 0.000000
      vertex -9.900000 -8.000000 0.000000
    endloop
  endfacet
  facet normal 0 0 0
    outer loop
      vertex -10.000000 -8.000000 0.000000
      vertex -10.000000 8.000000 0.000000
      vertex -9.900000 8.000000 0.000000
    endloop
  endfacet
  facet normal 0 0 0
    outer loop
      vertex -10.000000 -8.000000 5.000000
      vertex -9.900000 -8.000000 5.000000
      vertex -9.900000 8.000000 5.000000
    endloop
  endfacet
  facet normal 0 0 0
    outer loop
      vertex -10.000000 -8.000000 5.000000
      vertex -9.900000 8.000000 5.000000
      vertex -10.000000 8.000000 5.000000
    endloop
  endfacet
  facet normal 0 0 0
    outer loop
      vertex -10.000000 -8.000000 0.000000
      vertex -9.900000 -8.000000 0.000000
      vertex -9.900000 -8.000000 5.000000
    endloop
  endfacet
  facet normal 0 0 0
    outer loop
      vertex -10.000000 -8.000000 0.000000
      vertex -9.900000 -8.000000 5.000000
      vertex -10.000000 -8.000000 5.000000
    endloop
  endfacet
  facet normal 0 0 0
    outer loop
      vertex -9.900000 -8.000000 0.000000
      vertex -9.900000 8.000000 0.000000
      vertex -9.900000 8.000000 5.000000
    endloop
  endfacet
  facet normal 0 0 0
    outer loop
      vertex -9.900000 -8.000000 0.000000
      vertex -9.900000 8.000000 5.000000
      vertex -9.900000 -8.000000 5.000000
    endloop
  endfacet
  facet normal 0 0 0
    outer loop
      vertex -9.900000 8.000000 0.000000
      vertex -10.000000 8.000000 0.000000
      vertex -10.000000 8.000000 5.000000
    endloop
  endfacet
  facet normal 0 0 0
    outer loop
      vertex -9.900000 8.000000 0.000000
      vertex -10.000000 8.000000 5.000000
      vertex -9.900000 8.000000 5.000000
    endloop
  endfacet
  facet normal 0 0 0
    outer loop
      vertex -10.000000 8.000000 0.000000
      vertex -10.000000 -8.000000 0.000000
      vertex -10.000000 -8.000000 5.000000
    endloop
  endfacet
  facet normal 0 0 0
    outer loop
      vertex -10.000000 8.000000 0.000000
      vertex -10.000000 -8.000000 5.000000
      vertex -10.000000 8.000000 5.000000
    endloop
  endfacet
endsolid warehouse_20x16_walls